<svg width="20" height="20" viewBox="0 0 20 20" fill="none" xmlns="http://www.w3.org/2000/svg">
<g clip-path="url(#clip0_1_101)">
<path d="M12.4596 1.00058L10.585 0.5L9.00532 6.37555L7.57914 1.07106L5.70454 1.57165L7.24545 7.30275L3.40741 3.47777L2.03514 4.84538L6.24498 9.04096L1.00229 7.64095L0.5 9.50912L6.2283 11.0388C6.16272 10.7569 6.12802 10.4632 6.12802 10.1613C6.12802 8.02499 7.86577 6.29314 10.0094 6.29314C12.1531 6.29314 13.8908 8.02499 13.8908 10.1613C13.8908 10.4612 13.8565 10.7532 13.7918 11.0334L18.9977 12.4236L19.5 10.5554L13.7489 9.01964L18.992 7.61953L18.4897 5.75135L12.7388 7.28703L16.5768 3.46206L15.2046 2.09445L11.0531 6.23181L12.4596 1.00058Z" fill="white"/>
<path d="M13.7867 11.0552C13.626 11.7323 13.2866 12.3406 12.8211 12.828L16.5926 16.5868L17.9649 15.2192L13.7867 11.0552Z" fill="white"/>
<path d="M12.783 12.8674C12.3118 13.347 11.7163 13.7049 11.0486 13.8893L12.421 18.9937L14.2955 18.4931L12.783 12.8674Z" fill="white"/>
<path d="M10.9786 13.908C10.6688 13.9874 10.344 14.0296 10.0094 14.0296C9.6509 14.0296 9.30373 13.9811 8.97415 13.8904L7.60053 18.9994L9.47508 19.5L10.9786 13.908Z" fill="white"/>
<path d="M8.9079 13.8716C8.25036 13.678 7.6655 13.3155 7.20394 12.8345L3.42317 16.6024L4.79545 17.9701L8.9079 13.8716Z" fill="white"/>
<path d="M7.17239 12.8012C6.71874 12.3172 6.3883 11.717 6.23102 11.0503L1.00806 12.445L1.51034 14.3132L7.17239 12.8012Z" fill="white"/>
</g>
<defs>
<clipPath id="clip0_1_101">
<rect width="20" height="20" fill="white"/>
</clipPath>
</defs>
</svg>
